<svg version="1.2" xmlns="http://www.w3.org/2000/svg" viewBox="0 0 44 61" width="44" height="61">
	<title>maozinha-rock-black-svg</title>
	<style>
		.s0 { fill: #000000 } 
	</style>
	<g>
		<path class="s0" d="m27.5 35.5v-17.2h6.2v17.2z"/>
		<path class="s0" d="m19.7 26.8v8.6h6.2v-17.1h-6.2v7.7z"/>
		<g>
			<path class="s0" d="m35.3 0.4v17 19.6h-7.8-1.6-7.8v-5c-1.1 1.7-2.7 3.1-4.5 4 5.6 1.8 9.7 7 9.7 13.1h-1.6c0-6.7-5.4-12.1-12.1-12.1v-1.6c4.1 0 8.1-3.7 8.6-7.8l-9-0.1h-8.4v18.8l10.8 14.6h21.6l10.8-14.6v-24-21.9z"/>
			<path class="s0" d="m18.1 26v-8.5-17.1h-8.7v21.9 3.7z"/>
		</g>
	</g>
</svg>