<?xml version="1.0" encoding="utf-8"?>
<!-- Generator: Adobe Illustrator 24.3.0, SVG Export Plug-In . SVG Version: 6.00 Build 0)  -->
<svg version="1.1" id="Camada_1" xmlns="http://www.w3.org/2000/svg" xmlns:xlink="http://www.w3.org/1999/xlink" x="0px" y="0px"
	 viewBox="0 0 43.2 60.6" style="enable-background:new 0 0 43.2 60.6;" xml:space="preserve">
<style type="text/css">
	.st0{fill:#38D430;}
</style>
<g id="icone" transform="translate(-1358.432 -8499.823)">
	<path id="Color_Overlay" class="st0" d="M1369.3,8499.8l21.5-0.1l10.8,14.7v9.3h-25.9v5c-1.1-1.7-2.7-3.1-4.5-4
		c5.8-1.8,9.7-7.2,9.7-13.2h-1.6c-0.1,6.7-5.5,12.2-12.2,12.2v1.6l0,0c4.1,0,8.1,3.8,8.6,7.8l-17.2,0.2v-18.8L1369.3,8499.8
		L1369.3,8499.8z M1401.7,8525.4v17.2h-7.8v-17.2H1401.7z M1392.3,8525.4v17.2h-7v-17.2H1392.3z M1383.7,8525.4v17.2h-6.2v-17.2
		H1383.7z M1375.8,8534.8v8.6l0,0v17.1h-8.6v-25.7L1375.8,8534.8z"/>
</g>
</svg>
