<?xml version="1.0" encoding="utf-8"?>
<!-- Generator: Adobe Illustrator 24.3.0, SVG Export Plug-In . SVG Version: 6.00 Build 0)  -->
<svg version="1.1" id="Camada_1" xmlns="http://www.w3.org/2000/svg" xmlns:xlink="http://www.w3.org/1999/xlink" x="0px" y="0px"
	 viewBox="0 0 43.2 60.6" style="enable-background:new 0 0 43.2 60.6;" xml:space="preserve">
<style type="text/css">
	.st0{fill:#38D430;}
</style>
<g>
	<rect x="10.3" y="25.5" class="st0" width="6.2" height="17.2"/>
	<polygon class="st0" points="24.3,34.2 24.3,25.6 18.1,25.6 18.1,42.7 24.3,42.7 24.3,35 	"/>
	<g>
		<path class="st0" d="M8.7,60.6v-17l0,0V24h7.8h1.6h7.8v5c1.1-1.7,2.7-3.1,4.5-4c-5.6-1.8-9.7-7-9.7-13.1h1.6
			c0,6.7,5.4,12.1,12.1,12.1v1.6l0,0l0,0c-4.1,0-8.1,3.7-8.6,7.8l9,0.1l8.4,0V14.7L32.4,0.1H10.8L0,14.7v24l0,0v21.9H8.7z"/>
		<polygon class="st0" points="25.9,35 25.9,43.5 25.9,43.5 25.9,60.6 34.6,60.6 34.6,38.7 34.6,35 		"/>
	</g>
</g>
</svg>
