<svg version="1.2" xmlns="http://www.w3.org/2000/svg" viewBox="0 0 44 61" width="44" height="61">
	<title>maozinha-rock-svg</title>
	<style>
		.s0 { fill: #000000 } 
	</style>
	<g>
		<path class="s0" d="m10.3 25.5h6.2v17.2h-6.2z"/>
		<path class="s0" d="m24.3 34.2v-8.6h-6.2v17.1h6.2v-7.7z"/>
		<g>
			<path class="s0" d="m8.7 60.6v-17-19.6h7.8 1.6 7.8v5c1.1-1.7 2.7-3.1 4.5-4-5.6-1.8-9.7-7-9.7-13.1h1.6c0 6.7 5.4 12.1 12.1 12.1v1.6c-4.1 0-8.1 3.7-8.6 7.8l9 0.1h8.4v-18.8l-10.8-14.6h-21.6l-10.8 14.6v24 21.9z"/>
			<path class="s0" d="m25.9 35v8.5 17.1h8.7v-21.9-3.7z"/>
		</g>
	</g>
</svg>